<svg xmlns="http://www.w3.org/2000/svg" viewBox="4 4.4 24.02 23.96"><path d="M27.93 13.36A2 2 0 0 0 26 12h-6.18l-1.91-6.19a2 2 0 0 0-3.82 0L12.18 12H6a2 2 0 0 0-1.21 3.59l5.13 3.9L8 25.73A2 2 0 0 0 8.73 28a2 2 0 0 0 2.36-.06L16 24.16l4.91 3.74A2 2 0 0 0 24 25.73l-1.92-6.24 5.13-3.9a2 2 0 0 0 .72-2.23Z" fill="#5ca844" class="fill-8c9eff"/><path d="M20.91 27.9A2 2 0 0 0 24 25.73l-1.92-6.24 5.13-3.9A2 2 0 0 0 26 12h-6.18l-1.91-6.19A2 2 0 0 0 16 4.4v19.76Z" fill="#5ca844" class="fill-5f7cf9"/></svg>